<svg xmlns="http://www.w3.org/2000/svg" version="1.1" xmlns:xlink="http://www.w3.org/1999/xlink" xmlns:svgjs="http://svgjs.dev/svgjs" width="1500" height="696" viewBox="0 0 1500 696"><g transform="matrix(1,0,0,1,-0.9090909090909918,-0.2370479080132668)"><svg viewBox="0 0 396 184" data-background-color="#ffffff" preserveAspectRatio="xMidYMid meet" height="696" width="1500" xmlns="http://www.w3.org/2000/svg" xmlns:xlink="http://www.w3.org/1999/xlink"><g id="tight-bounds" transform="matrix(1,0,0,1,0.2400000000000091,0.062667837750638)"><svg viewBox="0 0 395.52 183.8744436917442" height="183.8744436917442" width="395.52"><g><svg viewBox="0 0 833.9501993019779 387.6975347979126" height="183.8744436917442" width="395.52"><g transform="matrix(1,0,0,1,438.43019930197795,140.12383929946157)"><svg viewBox="0 0 395.52 107.44985619898951" height="107.44985619898951" width="395.52"><g id="textblocktransform"><svg viewBox="0 0 395.52 107.44985619898951" height="107.44985619898951" width="395.52" id="textblock"><g><svg viewBox="0 0 395.52 107.44985619898951" height="107.44985619898951" width="395.52"><g transform="matrix(1,0,0,1,0,0)"><svg width="395.52" viewBox="3.05 -34.6 128.64 34.95" height="107.44985619898951" data-palette-color="#94078c"><g class="wordmark-text-0" data-fill-palette-color="primary" id="text-0"><path d="M21.45-22.4L21.45-22.4Q21.45-24.25 21.1-25.33 20.75-26.4 19.88-26.95 19-27.5 17.98-27.68 16.95-27.85 15.15-27.85L15.15-27.85 15.15-16.85Q16.55-16.85 17.63-17.1 18.7-17.35 19.6-17.95 20.5-18.55 20.98-19.68 21.45-20.8 21.45-22.4ZM15.15-10.3L15.15-7.5Q15.15-3.45 13.65-1.73 12.15 0 9.05 0L9.05 0Q5.95 0 4.5-1.58 3.05-3.15 3.05-7.15L3.05-7.15 3.05-28.25Q3.05-31.3 4.7-32.77 6.35-34.25 9.05-34.25L9.05-34.25 17.95-34.25Q21.2-34.25 23.95-33.38 26.7-32.5 28.73-30.93 30.75-29.35 31.88-26.98 33-24.6 33-21.7L33-21.7Q33-18.15 30.95-15.53 28.9-12.9 25.55-11.6 22.2-10.3 18-10.3L18-10.3 15.15-10.3ZM48.05-15.4L48.05-5.35Q48.05-2.35 46.8-1.18 45.55 0 42.35 0L42.35 0Q39.4 0 38.35-1.38 37.3-2.75 37.3-5.9L37.3-5.9 37.3-18.2Q37.3-19.9 37.9-21.18 38.5-22.45 39.65-23.15 40.8-23.85 42.35-23.85L42.35-23.85Q46.15-23.85 47.35-21.65L47.35-21.65Q50.25-23.85 52.95-23.85L52.95-23.85Q58.2-23.85 58.2-18.85L58.2-18.85Q58.2-16.85 57.05-15.6 55.9-14.35 54.05-14.35L54.05-14.35Q52.95-14.35 52.27-14.8 51.6-15.25 51.02-15.7 50.45-16.15 49.7-16.15L49.7-16.15Q48.6-16.15 48.05-15.4L48.05-15.4ZM60.75-30.8L60.75-30.8Q60.75-32.45 62.17-33.52 63.6-34.6 66.2-34.6L66.2-34.6Q71.65-34.6 71.65-30.8L71.65-30.8Q71.65-28.7 70.27-27.85 68.9-27 66.2-27L66.2-27Q63.85-27 62.3-27.9 60.75-28.8 60.75-30.8ZM71.59-18.35L71.59-5.35Q71.59-2.35 70.34-1.18 69.09 0 65.95 0L65.95 0Q63 0 61.92-1.38 60.85-2.75 60.85-5.9L60.85-5.9 60.85-18.2Q60.85-20.75 62.22-22.3 63.6-23.85 65.9-23.85L65.9-23.85Q68.59-23.85 70.09-22.68 71.59-21.5 71.59-18.35L71.59-18.35ZM90.94-18.7L90.94-18.7Q90.94-19.85 89.64-19.85L89.64-19.85Q88.69-19.85 87.94-18.8 87.19-17.75 86.79-16.18 86.39-14.6 86.39-12.9L86.39-12.9Q86.39-10.4 87.92-8.85 89.44-7.3 92.04-7.3L92.04-7.3Q94.59-7.3 96.44-7.9L96.44-7.9Q97.19-8.1 98.27-8.65 99.34-9.2 99.79-9.2L99.79-9.2Q100.49-9.2 100.94-8.95 101.39-8.7 101.57-8.35 101.74-8 101.74-7.6L101.74-7.6Q101.74-6.9 101.27-5.9 100.79-4.9 99.79-3.8 98.79-2.7 97.47-1.78 96.14-0.85 94.19-0.25 92.24 0.35 90.09 0.35L90.09 0.35Q83.89 0.35 79.89-2.98 75.89-6.3 75.89-12.1L75.89-12.1Q75.89-15.8 77.72-18.57 79.54-21.35 82.74-22.78 85.94-24.2 90.09-24.2L90.09-24.2Q94.04-24.2 96.62-23.28 99.19-22.35 100.29-20.8 101.39-19.25 101.39-17.1L101.39-17.1Q101.39-16.15 101.02-15.15 100.64-14.15 99.87-13.15 99.09-12.15 97.59-11.53 96.09-10.9 94.09-10.9L94.09-10.9Q93.19-10.9 92.62-11 92.04-11.1 91.42-11.43 90.79-11.75 90.49-12.5 90.19-13.25 90.19-14.4L90.19-14.4Q90.19-15.4 90.57-16.82 90.94-18.25 90.94-18.7ZM119.84 0.3L119.84 0.3Q113.74 0.3 109.77-2.85 105.79-6 105.79-11.45L105.79-11.45Q105.79-17.35 109.72-20.78 113.64-24.2 119.84-24.2L119.84-24.2Q125.69-24.2 128.42-22.13 131.14-20.05 131.14-16.45L131.14-16.45Q131.14-15.75 130.97-15.1 130.79-14.45 130.42-13.83 130.04-13.2 129.42-12.68 128.79-12.15 127.99-11.73 127.19-11.3 126.09-11.08 124.99-10.85 123.74-10.85L123.74-10.85 116.69-10.8Q117.19-9.2 118.49-8.28 119.79-7.35 121.79-7.35L121.79-7.35Q123.94-7.35 126.19-7.9L126.19-7.9Q127.14-8.15 128.27-8.7 129.39-9.25 129.89-9.25L129.89-9.25Q130.74-9.25 131.22-8.75 131.69-8.25 131.69-7.5L131.69-7.5Q131.69-6.6 130.89-5.33 130.09-4.05 128.67-2.78 127.24-1.5 124.89-0.6 122.54 0.3 119.84 0.3ZM116.44-14L116.44-14Q119.89-14.05 120.19-14.05L120.19-14.05Q120.94-14.05 121.29-14.95L121.29-14.95Q121.54-15.6 121.54-16.75L121.54-16.75Q121.54-19.9 119.64-19.9L119.64-19.9Q118.94-19.9 118.27-19.15 117.59-18.4 117.09-17.03 116.59-15.65 116.44-14Z" fill="#94078c" data-fill-palette-color="primary"></path></g></svg></g></svg></g></svg></g></svg></g><g><svg viewBox="0 0 387.6975347979126 387.6975347979126" height="387.6975347979126" width="387.6975347979126"><g><svg></svg></g><g id="icon-0"><svg viewBox="0 0 387.6975347979126 387.6975347979126" height="387.6975347979126" width="387.6975347979126"><g><path d="M0 193.849c0-107.06 86.789-193.849 193.849-193.849 107.06 0 193.849 86.789 193.849 193.849 0 107.06-86.789 193.849-193.849 193.849-107.06 0-193.849-86.789-193.849-193.849zM193.849 378.008c101.708 0 184.159-82.451 184.159-184.159 0-101.708-82.451-184.159-184.159-184.159-101.708 0-184.159 82.451-184.159 184.159 0 101.708 82.451 184.159 184.159 184.159z" data-fill-palette-color="accent" fill="#2ecc40" stroke="transparent"></path></g><g transform="matrix(1,0,0,1,80.53631145714121,80.2978703616358)"><svg viewBox="0 0 226.6249118836302 227.10179407464102" height="227.10179407464102" width="226.6249118836302"><g><svg xmlns="http://www.w3.org/2000/svg" xmlns:xlink="http://www.w3.org/1999/xlink" version="1.1" x="0" y="0" viewBox="1.4868133194899242 1.3904199146291152 96.9194151469184 97.12336070022316" enable-background="new 0 0 100 100" xml:space="preserve" height="227.10179407464102" width="226.6249118836302" class="icon-cg-0" data-fill-palette-color="accent" id="cg-0"><path d="M55.2 2.7v6.2c3.5 0.7 6.4 2.3 8.6 4.8 2.1 2.4 3.2 5.4 3.4 9 0.1 0.9-0.7 1.6-1.6 1.6l-8.2 0.1c-0.8 0-1.5-0.6-1.6-1.4-0.2-1.8-0.6-3.1-1.4-4.1-1-1.2-2.2-1.8-3.8-1.8-1.6 0-2.8 0.5-3.6 1.5-0.8 1-1.2 2.3-1.2 3.8 0 1.6 0.4 2.8 1.2 3.8 0.8 1 2.4 2 4.6 3 5.3 2.2 9.1 4.5 11.6 6.7 2.5 2.2 3.7 5.4 3.7 9.6 0 3.9-1.2 7.1-3.7 9.5-2.1 2-4.9 3.4-8.2 4v5.7c0 0.8-0.6 1.4-1.4 1.4h-5c-0.8 0-1.4-0.6-1.4-1.4v-5.6c-4.2-0.5-7.7-2-10.5-4.5-2.6-2.4-4-5.7-4.2-10 0-0.9 0.7-1.6 1.6-1.6l8.1-0.1c0.8 0 1.5 0.6 1.6 1.4 0.2 2.1 0.8 3.6 1.8 4.6 1.2 1.2 2.8 1.9 4.8 1.9 1.6 0 2.9-0.5 3.7-1.4 0.8-1 1.3-2.2 1.3-3.7 0-1.8-0.4-3.2-1.3-4.2-0.9-1-2.4-2-4.6-2.9-5.4-2.1-9.2-4.3-11.7-6.5-2.4-2.2-3.7-5.4-3.7-9.6 0-3.8 1.3-7 3.9-9.5 2.3-2.3 5.4-3.6 9.2-4.2v-6c0-0.8 0.6-1.4 1.4-1.4h5C54.6 1.3 55.2 2 55.2 2.7zM96.1 78.5l-27.4 16-1 0.5c-3.6 1.9-7.3 2.3-11.4 1.9l-36.2-1.6c-0.6 1.5-2 2.5-3.8 2.6l-8.2 0.6c-2.7 0.2-5.1-1.8-5.3-4.5L1.5 75.9c-0.2-2.6 1.9-4.9 4.6-5.1l8.2-0.6c1.7-0.1 3.3 0.8 4.1 2.1 3.7-1.6 10.6-4.9 23-1.3 1.2 0.4 3.3 0.7 4.6 0.7L65.2 72c2.4-0.3 4.7 1.6 4.9 4.1s-1.6 4.7-4 5l-21.5 2c-0.7 0.1-1.2 0.7-1.1 1.4 0.1 0.6 0.7 1.1 1.3 1l0.8 0c0 0 14.5-0.2 24.4-2.3 1.8-0.4 3.4-1 5-2 0.2-0.2 0.6-0.4 0.8-0.5 3.4-2.4 8.6-5.3 12.3-7.2 1-0.5 4.9-2.6 6.7-2.5 2.6 0.2 3.7 2.2 3.6 4.1C98.4 76.4 97.5 77.7 96.1 78.5zM14 91.6c0-1.5-1.3-2.7-2.8-2.7-1.6 0-2.8 1.2-2.8 2.7s1.3 2.7 2.8 2.7C12.7 94.3 14 93.1 14 91.6zM75.4 76.5c2.8-2 8.5-5.1 11.7-6.7 1-0.5 2-1 3.1-1.4-1.4-0.9-2.9-1-4.5-0.4-3.1 1.2-8.7 3.9-11.6 5.5 0 0 0 0.1 0 0.1 0.2 0.6 0.4 1.2 0.4 1.9 0.1 0.5 0 1 0 1.5C74.8 76.9 75.1 76.7 75.4 76.5zM78.4 65.9c-1.9 0.8-6.1 2.1-8 3.1 0.8 0.5 1.5 1.1 2.1 1.8 0.1-0.1 0.2-0.2 0.4-0.3l1.4-0.8c2-1.1 6.3-2.6 8.6-3.6C81.4 65.3 79.9 65.3 78.4 65.9z" fill="#2ecc40" data-fill-palette-color="accent"></path></svg></g></svg></g></svg></g></svg></g></svg></g><defs></defs></svg><rect width="395.52" height="183.8744436917442" fill="none" stroke="none" visibility="hidden"></rect></g></svg></g></svg>